<?xml version="1.0" encoding="utf-8"?>
<!-- Generator: Adobe Illustrator 16.0.4, SVG Export Plug-In . SVG Version: 6.00 Build 0)  -->
<!DOCTYPE svg PUBLIC "-//W3C//DTD SVG 1.1//EN" "http://www.w3.org/Graphics/SVG/1.1/DTD/svg11.dtd">
<svg version="1.1" id="Layer_1" xmlns="http://www.w3.org/2000/svg" xmlns:xlink="http://www.w3.org/1999/xlink" x="0px" y="0px"
	 width="823.68px" height="253.434px" viewBox="0 0 823.68 253.434" enable-background="new 0 0 823.68 253.434"
	 xml:space="preserve">
<g>
	<g>
		<path fill="#010101" d="M769.835,57.955v-5.729h1.142l1.357,4.056c0.125,0.375,0.215,0.658,0.272,0.848
			c0.065-0.207,0.166-0.514,0.305-0.919l1.372-3.985h1.019v5.729h-0.73V53.16l-1.664,4.795h-0.683l-1.656-4.878v4.878H769.835z
			 M766.43,57.955v-5.053h-1.887v-0.676h4.538v0.676h-1.895v5.053H766.43z"/>
	</g>
	<path fill="#010101" d="M688.253,122.701h-40.281v28.578c0,4.149,1.72,6.222,5.162,6.222c3.377,0,5.063-2.072,5.063-6.222v-24.676
		h30.055v24.888c0,16.52-11.775,24.781-35.324,24.781c-23.343,0-35.011-8.61-35.011-25.835v-73.29
		c0-17.224,11.668-25.835,35.011-25.835c23.549,0,35.324,8.261,35.324,24.781L688.253,122.701L688.253,122.701z M658.198,104.353
		v-28.05c0-4.008-1.687-6.01-5.063-6.01c-3.443,0-5.162,2.003-5.162,6.01v28.05H658.198z"/>
	<path fill="#010101" d="M694.791,125.339h30.053v25.94c0,4.149,1.688,6.222,5.062,6.222c3.374,0,5.062-3.971,5.062-11.916
		c0-10.334-2.075-17.012-6.223-20.036c-15.676-8.226-25.132-13.972-28.366-17.242s-4.851-8.172-4.851-14.709V77.147
		c0-17.224,11.669-25.835,35.011-25.835c22.705,0,34.061,8.261,34.061,24.781v24.147h-29.315l0.632-14.657
		c0-10.192-1.863-15.291-5.588-15.291c-3.728,0-5.59,3.199-5.59,9.596c0,6.608,0.826,11.599,2.479,14.974
		c1.649,3.375,10.844,9.174,27.574,17.399c6.962,4.992,10.441,11.599,10.441,19.825v18.35c0,17.225-11.863,25.835-35.591,25.835
		c-23.235,0-34.851-8.262-34.851-24.781V125.339z"/>
	<path fill="#006325" d="M118.714,106.357H88.659V76.303c0-4.008-1.688-6.01-5.063-6.01c-3.443,0-5.166,2.003-5.166,6.01v74.976
		c0,4.149,1.722,6.222,5.166,6.222c3.375,0,5.063-2.072,5.063-6.222v-29.632h30.055v29.844c0,16.521-11.565,24.781-34.694,24.781
		c-23.764,0-35.643-8.61-35.643-25.835v-73.29c0-17.224,11.879-25.835,35.643-25.835c23.127,0,34.694,8.261,34.694,24.781V106.357z"
		/>
	<path fill="#006325" d="M220.684,174.583h-18.981c-13.568,0-21.688-2.039-24.358-6.116c-2.672-4.076-4.006-11.916-4.006-23.516
		V70.293h-13.394V52.155h13.394V27.48h30.052v24.675h16.24v18.139h-16.24v74.448c0,3.586,1.071,5.995,3.216,7.224
		c2.143,1.231,6.838,1.846,14.077,1.846L220.684,174.583L220.684,174.583z"/>
	<path fill="#006325" d="M305.572,52.155L282.266,173.95c-2.389,12.443-5.605,19.983-9.648,22.619
		c-4.043,2.637-9.649,3.954-16.819,3.954h-20.984v-16.449c7.872,0,12.759-0.388,14.657-1.16c1.899-0.775,2.849-3.059,2.849-6.855
		s-4.325-23.585-12.972-59.369l-15.606-64.536h30.082l12.535,64.668l9.901-64.668L305.572,52.155L305.572,52.155z"/>
	<path fill="#010101" d="M309.58,125.339h30.052v25.94c0,4.149,1.688,6.222,5.062,6.222c3.374,0,5.062-3.971,5.062-11.916
		c0-10.334-2.074-17.012-6.222-20.036c-15.678-8.226-25.134-13.972-28.366-17.242c-3.234-3.27-4.852-8.172-4.852-14.709V77.147
		c0-17.224,11.668-25.835,35.011-25.835c22.707,0,34.06,8.261,34.06,24.781v24.147h-29.314l0.632-14.657
		c0-10.192-1.863-15.291-5.59-15.291c-3.728,0-5.589,3.199-5.589,9.596c0,6.608,0.827,11.599,2.478,14.974
		c1.651,3.375,10.844,9.174,27.576,17.399c6.959,4.992,10.438,11.599,10.438,19.825v18.35c0,17.225-11.863,25.835-35.588,25.835
		c-23.235,0-34.851-8.262-34.851-24.781V125.339L309.58,125.339z"/>
	<path fill="#010101" d="M456.473,106.357h-30.055V76.303c0-4.008-1.688-6.01-5.063-6.01c-3.444,0-5.165,2.003-5.165,6.01v74.976
		c0,4.149,1.721,6.222,5.165,6.222c3.376,0,5.063-2.072,5.063-6.222v-29.632h30.055v29.844c0,16.521-11.565,24.781-34.694,24.781
		c-23.762,0-35.643-8.61-35.643-25.835v-73.29c0-17.224,11.88-25.835,35.643-25.835c23.128,0,34.694,8.261,34.694,24.781V106.357z"
		/>
	<path fill="#010101" d="M533.979,174.583h-26.572v-4.745c-2.252,4.288-8.684,6.433-19.299,6.433
		c-16.381,0-24.569-6.396-24.569-19.192v-24.57c0-5.483,1.985-10.263,5.959-14.34c3.97-4.077,11.968-9.175,23.989-15.29
		c6.959-3.516,10.439-6.329,10.439-8.438V76.303c0-4.008-1.723-6.01-5.168-6.01c-3.937,0-5.902,4.886-5.902,14.658
		c0,1.757,0.104,4.36,0.314,7.804c0.28,3.444,0.424,6.046,0.424,7.803h-29V76.093c0-16.519,11.949-24.781,35.852-24.781
		c22.355,0,33.534,8.612,33.534,25.835L533.979,174.583L533.979,174.583z M503.925,151.7v-31.53
		c-6.891,1.688-10.332,4.783-10.332,9.281V151.7c0,3.728,1.791,5.589,5.377,5.589C502.271,157.289,503.925,155.428,503.925,151.7z"
		/>
	<path fill="#010101" d="M570.887,171.736v28.787h-30.055V52.155h22.753l2.539,4.957c4.934-3.865,10.782-5.799,17.55-5.799
		c6.837,0,13.164,1.723,18.979,5.167c5.817,3.445,8.725,8.402,8.725,14.869v87.945c0,5.132-2.115,9.246-6.344,12.338
		c-4.229,3.093-9.373,4.64-15.435,4.64C581.213,176.271,574.974,174.759,570.887,171.736z M581.326,151.7V75.881
		c0-3.724-1.724-5.588-5.167-5.588c-3.517,0-5.272,1.864-5.272,5.588v76.031c0,3.585,1.756,5.377,5.272,5.377
		C579.603,157.289,581.326,155.428,581.326,151.7z"/>
	<g>
		<rect x="124.829" y="52.155" fill="#006325" width="30.054" height="122.428"/>
		<g>
			<path fill="#FFFFFF" d="M133.278,42.856c0.225,0.496,1.017,1.715,3.188,1.103c0.004-0.001,0.007-0.002,0.013-0.004
				c0.765-0.208,1.435-0.535,2.636-1.122c0.197-0.096,0.392-0.192,0.622-0.304c0.208-0.104,0.414-0.208,0.616-0.317
				c1.415,0.496,2.96,0.602,4.46,0.511c0.78-0.046,1.582-0.167,2.356-0.365c2.691-0.684,5.501-2.359,7.271-4.861
				c0.113-0.161,0.357-0.824,0.491-0.914c-1.102,0.731-2.173,1.54-3.274,2.283c-2.359,1.595-5.005,2.375-7.592,2.097
				c-0.429-0.047-0.878-0.035-1.291-0.175c-0.014-0.005-0.036-0.017-0.069-0.037c0.646-0.452,1.275-0.933,1.897-1.44
				c0.619-0.504,1.204-1.064,1.757-1.658c1.114-1.202,2.1-2.542,3.034-3.912c0.656,0.017,1.305,0.094,1.974-0.024
				c1.142-0.201,2.277-0.742,3.261-1.447c1-0.72,2.086-1.49,2.776-2.523c0.095-0.143,0.214-0.336,0.307-0.535
				c0.073-0.156,0.127-0.314,0.131-0.455c0.022-0.528-0.64,0.198-0.78,0.319c-0.567,0.485-1.162,0.953-1.764,1.406
				c-0.925,0.697-1.882,1.356-2.961,1.724c-0.506,0.169-1.004,0.238-1.511,0.169c-0.033-0.002-0.223-0.054-0.443-0.117
				c0.391-0.595,0.776-1.188,1.163-1.772c0.972-1.472,1.955-2.917,2.901-4.347c1.081-1.635,2.21-3.191,3.394-4.638
				c1.482-1.799,2.326-2.538,2.769-2.87c-0.194,0.029-0.585,0.104-1.341,0.333c-1.438,0.416-2.993,2.331-3.889,3.446
				c-0.899,1.104-1.464,2.068-1.465,2.066c-1.043,1.755-2.326,3.5-3.489,5.265c-1.747,2.642-3.636,5.077-6.013,7.12
				c-0.664,0.571-1.349,1.11-2.042,1.629c-0.683,0.511-1.379,1.049-2.093,1.547c0.014-0.339,0.014-0.672,0.026-0.98
				c0.069-1.664,0.088-3.338,0.28-5.012c0.309-2.656,1.171-5.005,2.532-7.312c0.39-0.659,0.797-1.306,1.196-1.955
				c0.444-0.722,0.895-1.44,1.386-2.121c0.047-0.061,0.103-0.173,0.165-0.222c-1.443,1.052-2.865,2.351-3.883,3.938
				c-0.614,0.951-1.088,1.995-1.463,3.07c-0.059-0.318-0.125-0.632-0.16-0.941c-0.107-1.054-0.161-2.271,0.198-3.334
				c0.129-0.377,0.355-0.739,0.423-1.131c-1.915,1.501-2.072,4.622-1.758,6.773c0.09,0.607,0.23,1.221,0.431,1.796
				c-0.111,0.511-0.209,1.022-0.295,1.534c-0.374,2.275-0.618,4.573-0.543,6.82c-0.168,0.093-0.342,0.167-0.514,0.25
				c-0.509,0.25-1.028,0.469-1.566,0.61c-0.698,0.18-1.414,0.274-2.129,0.268c-0.059-0.003-0.12-0.005-0.177-0.009
				c-0.166-0.01-0.327-0.034-0.487-0.06c-0.247-0.039-0.482-0.109-0.714-0.182c-0.169,0.4-0.023,0.822-0.023,0.822
				c0.001,0,0.001,0,0.001-0.002C133.223,42.722,133.254,42.789,133.278,42.856z"/>
			<path fill="#006325" d="M164.296,14.909c-0.154,0.069-0.333,0.1-0.511,0.139c-0.263,0.054-0.526,0.107-0.789,0.161
				c-0.291,0.057-0.573,0.118-0.86,0.178c-0.24,0.049-0.479,0.102-0.722,0.154c-0.127,0.027-0.253,0.061-0.382,0.08
				c-1.035,0.161-2.083,0.277-3.137,0.289c-1.679,0.019-3.332-0.097-4.954-0.056c-1.143,0.031-2.275,0.12-3.389,0.269
				c-1.109,0.146-2.206,0.352-3.284,0.628c-3.445,0.877-6.713,2.51-9.71,4.73c-3.798,2.87-7.725,6.992-8.078,11.918
				c-0.215,3.118,1.105,6.56,3.723,8.025c0.264,0.146,0.544,0.264,0.834,0.366c0.059,0.021,0.125,0.028,0.185,0.047
				c0.232,0.073,0.466,0.143,0.714,0.182c0.16,0.025,0.321,0.05,0.487,0.06c0.057,0.004,0.118,0.006,0.177,0.009
				c0.716,0.006,1.431-0.087,2.129-0.268c0.537-0.14,1.056-0.359,1.566-0.61c0.171-0.083,0.345-0.157,0.513-0.25
				c-0.074-2.247,0.17-4.545,0.544-6.82c0.085-0.51,0.183-1.021,0.294-1.534c-0.201-0.576-0.341-1.19-0.431-1.796
				c-0.314-2.152-0.156-5.272,1.758-6.773c-0.067,0.392-0.292,0.755-0.423,1.13c-0.358,1.064-0.305,2.28-0.198,3.335
				c0.035,0.31,0.101,0.623,0.16,0.941c0.376-1.075,0.849-2.119,1.464-3.07c1.018-1.587,2.44-2.887,3.883-3.938
				c-0.062,0.048-0.118,0.161-0.165,0.222c-0.492,0.68-0.942,1.397-1.386,2.12c-0.398,0.649-0.806,1.295-1.196,1.955
				c-1.36,2.307-2.223,4.655-2.532,7.312c-0.193,1.675-0.212,3.348-0.281,5.012c-0.012,0.309-0.012,0.643-0.026,0.98
				c0.714-0.499,1.411-1.036,2.093-1.547c0.693-0.519,1.378-1.058,2.042-1.628c2.378-2.043,4.267-4.479,6.012-7.12
				c1.163-1.764,2.445-3.51,3.489-5.265c0.002,0.002,0.567-0.962,1.465-2.066c0.896-1.115,2.451-3.03,3.889-3.446
				c0.756-0.229,1.147-0.304,1.341-0.333c-0.443,0.333-1.287,1.071-2.769,2.87c-1.184,1.447-2.312,3.003-3.394,4.638
				c-0.946,1.429-1.929,2.875-2.901,4.347c-0.386,0.584-0.771,1.178-1.163,1.772c0.22,0.062,0.411,0.115,0.444,0.117
				c0.507,0.068,1.005-0.001,1.511-0.169c1.08-0.368,2.036-1.027,2.962-1.724c0.603-0.453,1.197-0.921,1.763-1.406
				c0.141-0.122,0.803-0.847,0.78-0.318c-0.005,0.139-0.058,0.298-0.131,0.454c-0.092,0.199-0.211,0.392-0.307,0.536
				c-0.689,1.033-1.776,1.803-2.776,2.523c-0.984,0.705-2.12,1.246-3.262,1.447c-0.669,0.119-1.316,0.042-1.974,0.024
				c-0.934,1.37-1.92,2.71-3.034,3.912c-0.553,0.595-1.138,1.155-1.757,1.659c-0.622,0.507-1.25,0.988-1.897,1.44
				c0.033,0.021,0.055,0.031,0.069,0.037c0.413,0.14,0.862,0.129,1.291,0.175c2.587,0.278,5.233-0.501,7.592-2.097
				c1.102-0.743,2.172-1.552,3.274-2.283c-0.133,0.09-0.378,0.753-0.491,0.914c-1.769,2.502-4.58,4.179-7.271,4.861
				c-0.775,0.198-1.577,0.318-2.356,0.364c-1.501,0.092-3.047-0.015-4.46-0.51c-0.204,0.109-0.409,0.214-0.617,0.317
				c-0.23,0.112-0.425,0.207-0.622,0.304c-1.2,0.586-1.869,0.913-2.635,1.122c-0.006,0.002-0.008,0.002-0.013,0.003
				c-2.17,0.613-2.962-0.606-3.188-1.102c-0.023-0.068-0.055-0.134-0.076-0.199c0,0.001,0,0.001-0.001,0.001
				c-0.384,0.624-1.136,1.255-1.136,1.255c-1.181,0.811-3.076,1.808-5.747,2.054c-4.902,0.314-4.865-0.284-5.789-0.167
				c-0.043,0.002-0.068,0.009-0.105,0.012c-0.792,0.067-0.315,0.533-0.315,0.535c0.003,0.008,1.698,0.695,2.677,1.994
				c0.026,0.03,0.051,0.056,0.073,0.084c0.204,0.234,0.686,0.333,0.688,0.33c3.689-0.175,6.814-1.419,9.42-3.266
				c0.203-0.145,0.395-0.301,0.593-0.451c0.172-0.133,0.351-0.258,0.519-0.396c0.096,0.148,0.208,0.287,0.321,0.425
				c0.475,0.584,1.066,1.084,1.663,1.485c4.263,2.875,9.271,2.429,13.761-0.247c1.876-1.102,3.789-2.876,5.256-4.568
				c2.533-2.943,4.216-6.413,5.257-9.896c0.029-0.108,0.062-0.219,0.09-0.329c0.129-0.457,0.258-0.911,0.375-1.365
				c0.114-0.456,0.224-0.912,0.318-1.367c0.098-0.456,0.194-0.913,0.282-1.367c0.085-0.452,0.168-0.906,0.255-1.357
				c0.078-0.451,0.151-0.9,0.229-1.348c0.074-0.449,0.149-0.898,0.224-1.344c0.054-0.341,0.112-0.679,0.171-1.017
				c0.09-0.536,0.182-1.071,0.281-1.6c0.098-0.527,0.199-1.049,0.308-1.566c0.113-0.515,0.231-1.026,0.368-1.53
				c0.112-0.44,0.253-0.867,0.42-1.282c0.022-0.055,0.045-0.109,0.069-0.165c0.194-0.451,0.407-0.885,0.618-1.317
				C164.333,14.893,164.312,14.902,164.296,14.909z"/>
		</g>
	</g>
	<g>
		<path fill="#010101" d="M74.738,235.439c-2.913,2.073-6.63,3.109-11.15,3.109c-4.355,0-7.644-0.744-9.867-2.23
			c-2.643-1.757-3.964-4.663-3.964-8.718c0-4.023,1.32-6.932,3.964-8.717c2.223-1.488,5.512-2.231,9.867-2.231
			c4.52,0,8.237,1.036,11.15,3.108v-3.108h2.704v21.896h-2.704V235.439z M63.587,219.334c-3.484,0-6.045,0.45-7.681,1.351
			c-2.312,1.232-3.469,3.536-3.469,6.916s1.157,5.684,3.469,6.916c1.636,0.901,4.197,1.351,7.681,1.351s6.052-0.45,7.704-1.351
			c2.298-1.232,3.447-3.536,3.447-6.916c0-3.365-1.148-5.67-3.447-6.916C69.64,219.784,67.071,219.334,63.587,219.334z"/>
		<path fill="#010101" d="M110.343,222.442c-0.977-1.321-2.486-2.215-4.528-2.681c-0.601-0.15-1.333-0.259-2.197-0.326
			s-1.859-0.101-2.985-0.101c-3.514,0-6.082,0.45-7.704,1.351c-2.298,1.246-3.447,3.551-3.447,6.916v10.948h-2.703v-21.896h2.703
			v3.108c2.899-2.072,6.616-3.108,11.15-3.108c6.143,0,10.228,1.532,12.254,4.597L110.343,222.442z"/>
		<path fill="#010101" d="M131.507,238.549c-4.355,0-7.644-0.744-9.867-2.23c-2.643-1.788-3.965-4.693-3.965-8.718
			c0-4.055,1.321-6.961,3.965-8.717c2.177-1.488,5.466-2.231,9.867-2.231c6.173,0,10.264,1.532,12.277,4.597l-2.545,1.193
			c-0.977-1.321-2.486-2.215-4.529-2.681c-1.157-0.284-2.891-0.427-5.203-0.427c-3.484,0-6.044,0.45-7.682,1.351
			c-2.312,1.231-3.469,3.536-3.469,6.916s1.157,5.684,3.469,6.916c1.637,0.901,4.198,1.351,7.682,1.351
			c1.112,0,2.091-0.034,2.939-0.102c0.848-0.066,1.588-0.16,2.219-0.28c2.058-0.48,3.582-1.383,4.573-2.703l2.545,1.193
			C141.757,237.024,137.665,238.549,131.507,238.549z"/>
		<path fill="#010101" d="M176.438,227.6c0-3.38-1.157-5.684-3.469-6.916c-1.652-0.901-4.212-1.351-7.682-1.351
			c-3.499,0-6.067,0.45-7.704,1.351c-2.298,1.246-3.447,3.551-3.447,6.916v10.948h-2.703v-29.601h2.703v10.813
			c2.899-2.072,6.615-3.108,11.15-3.108c4.34,0,7.629,0.743,9.867,2.23c2.643,1.787,3.965,4.694,3.965,8.718v10.948h-2.68V227.6
			L176.438,227.6z"/>
		<path fill="#010101" d="M187.51,208.948h2.703v2.704h-2.703V208.948z M187.51,216.652h2.703v21.896h-2.703V216.652z"/>
		<path fill="#010101" d="M208.021,238.549h-2.703v-19.215h-7.682v-2.681h7.682v-7.705h2.703v7.705h7.682v2.681h-7.682V238.549z"/>
		<path fill="#010101" d="M223.983,228.952c0.435,2.898,1.869,4.874,4.303,5.925c1.577,0.661,3.829,0.991,6.758,0.991
			c1.096,0,2.064-0.034,2.905-0.102c0.842-0.066,1.577-0.16,2.208-0.28c1.982-0.437,3.5-1.308,4.55-2.613l2.5,1.193
			c-2.027,2.989-6.082,4.484-12.165,4.484c-4.355,0-7.644-0.743-9.867-2.23c-2.643-1.788-3.965-4.694-3.965-8.718
			c0-4.055,1.321-6.962,3.965-8.718c2.177-1.487,5.466-2.231,9.867-2.231c4.355,0,7.651,0.744,9.889,2.231
			c2.643,1.787,3.965,4.694,3.965,8.718c0,0.21-0.008,0.428-0.022,0.653c-0.014,0.225-0.037,0.458-0.067,0.697L223.983,228.952
			L223.983,228.952z M235.042,219.334c-2.929,0-5.181,0.33-6.757,0.99c-2.433,1.052-3.867,3.026-4.303,5.926h22.144
			c-0.436-2.899-1.87-4.874-4.304-5.926C240.232,219.664,237.972,219.334,235.042,219.334z"/>
		<path fill="#010101" d="M268.237,238.549c-4.355,0-7.644-0.744-9.867-2.23c-2.643-1.788-3.965-4.693-3.965-8.718
			c0-4.055,1.321-6.961,3.965-8.717c2.177-1.488,5.466-2.231,9.867-2.231c6.172,0,10.264,1.532,12.277,4.597l-2.545,1.193
			c-0.977-1.321-2.486-2.215-4.528-2.681c-1.157-0.284-2.892-0.427-5.204-0.427c-3.484,0-6.045,0.45-7.681,1.351
			c-2.312,1.231-3.469,3.536-3.469,6.916s1.157,5.684,3.469,6.916c1.636,0.901,4.197,1.351,7.681,1.351
			c1.112,0,2.091-0.034,2.939-0.102c0.848-0.066,1.588-0.16,2.219-0.28c2.058-0.48,3.582-1.383,4.573-2.703l2.545,1.193
			C278.487,237.024,274.395,238.549,268.237,238.549z"/>
		<path fill="#010101" d="M296.633,238.549h-2.703v-19.215h-7.682v-2.681h7.682v-7.705h2.703v7.705h7.682v2.681h-7.682V238.549z"/>
		<path fill="#010101" d="M335.773,235.439c-2.928,2.073-6.645,3.109-11.15,3.109c-4.37,0-7.667-0.744-9.889-2.23
			c-2.628-1.772-3.942-4.677-3.942-8.718v-10.948h2.68V227.6c0,3.38,1.157,5.684,3.469,6.917c1.637,0.9,4.198,1.35,7.682,1.35
			c3.469,0,6.03-0.45,7.682-1.35c2.312-1.233,3.468-3.537,3.468-6.917v-10.948h2.681v21.896h-2.681V235.439z"/>
		<path fill="#010101" d="M371.378,222.442c-0.977-1.321-2.486-2.215-4.528-2.681c-0.601-0.15-1.333-0.259-2.197-0.326
			c-0.864-0.067-1.859-0.101-2.984-0.101c-3.515,0-6.083,0.45-7.705,1.351c-2.298,1.246-3.447,3.551-3.447,6.916v10.948h-2.704
			v-21.896h2.704v3.108c2.899-2.072,6.615-3.108,11.151-3.108c6.142,0,10.227,1.532,12.253,4.597L371.378,222.442z"/>
		<path fill="#010101" d="M403.694,235.439c-2.914,2.073-6.631,3.109-11.151,3.109c-4.355,0-7.645-0.744-9.867-2.23
			c-2.642-1.757-3.964-4.663-3.964-8.718c0-4.023,1.321-6.932,3.964-8.717c2.223-1.488,5.512-2.231,9.867-2.231
			c4.52,0,8.237,1.036,11.151,3.108v-3.108h2.703v21.896h-2.703V235.439z M392.543,219.334c-3.484,0-6.044,0.45-7.682,1.351
			c-2.312,1.232-3.469,3.536-3.469,6.916s1.157,5.684,3.469,6.916c1.637,0.901,4.198,1.351,7.682,1.351s6.052-0.45,7.705-1.351
			c2.297-1.232,3.447-3.536,3.447-6.916c0-3.365-1.149-5.67-3.447-6.916C398.595,219.784,396.027,219.334,392.543,219.334z"/>
		<path fill="#010101" d="M415.735,208.948h2.703v29.601h-2.703V208.948z"/>
		<path fill="#010101" d="M447.499,208.948h2.703v2.704h-2.703V208.948z M447.499,216.652h2.703v21.896h-2.703V216.652z"/>
		<path fill="#010101" d="M484.546,227.6c0-3.38-1.157-5.684-3.47-6.916c-1.652-0.901-4.212-1.351-7.682-1.351
			c-3.499,0-6.067,0.45-7.705,1.351c-2.297,1.246-3.445,3.551-3.445,6.916v10.948h-2.705v-21.896h2.705v3.108
			c2.941-2.072,6.66-3.108,11.149-3.108c4.341,0,7.63,0.743,9.866,2.231c2.645,1.786,3.965,4.693,3.965,8.717v10.948h-2.679V227.6z"
			/>
		<path fill="#010101" d="M520.623,227.6c0-3.38-1.157-5.684-3.47-6.916c-1.651-0.901-4.212-1.351-7.682-1.351
			c-3.499,0-6.067,0.45-7.704,1.351c-2.297,1.246-3.446,3.551-3.446,6.916v10.948h-2.704v-21.896h2.704v3.108
			c2.942-2.072,6.66-3.108,11.149-3.108c4.342,0,7.63,0.743,9.867,2.231c2.644,1.786,3.965,4.693,3.965,8.717v10.948h-2.68V227.6
			L520.623,227.6z"/>
		<path fill="#010101" d="M543.611,238.549c-4.355,0-7.645-0.744-9.866-2.23c-2.644-1.757-3.966-4.663-3.966-8.718
			s1.321-6.961,3.966-8.717c2.177-1.488,5.466-2.231,9.866-2.231c4.354,0,7.651,0.743,9.889,2.231
			c2.644,1.756,3.964,4.662,3.964,8.717s-1.319,6.961-3.964,8.718C551.263,237.804,547.966,238.549,543.611,238.549z
			 M543.611,219.334c-3.484,0-6.044,0.45-7.682,1.351c-2.312,1.232-3.469,3.536-3.469,6.916s1.157,5.684,3.469,6.916
			c1.638,0.901,4.197,1.351,7.682,1.351s6.051-0.45,7.704-1.351c2.298-1.232,3.447-3.536,3.447-6.916
			c0-3.365-1.149-5.67-3.447-6.916C549.663,219.784,547.096,219.334,543.611,219.334z"/>
		<path fill="#010101" d="M574.125,238.549l-12.66-21.896h3.086l11.443,19.801l11.467-19.801h3.086l-12.66,21.896H574.125
			L574.125,238.549z"/>
		<path fill="#010101" d="M619.529,235.439c-2.913,2.073-6.631,3.109-11.15,3.109c-4.355,0-7.645-0.744-9.867-2.23
			c-2.643-1.757-3.965-4.663-3.965-8.718c0-4.023,1.321-6.932,3.965-8.717c2.223-1.488,5.512-2.231,9.867-2.231
			c4.521,0,8.237,1.036,11.15,3.108v-3.108h2.702v21.896h-2.702V235.439z M608.378,219.334c-3.484,0-6.045,0.45-7.682,1.351
			c-2.312,1.232-3.469,3.536-3.469,6.916s1.156,5.684,3.469,6.916c1.637,0.901,4.197,1.351,7.682,1.351s6.052-0.45,7.704-1.351
			c2.298-1.232,3.447-3.536,3.447-6.916c0-3.365-1.149-5.67-3.447-6.916C614.43,219.784,611.862,219.334,608.378,219.334z"/>
		<path fill="#010101" d="M640.041,238.549h-2.704v-19.215h-7.682v-2.681h7.682v-7.705h2.704v7.705h7.682v2.681h-7.682V238.549z"/>
		<path fill="#010101" d="M655.145,208.948h2.703v2.704h-2.703V208.948z M655.145,216.652h2.703v21.896h-2.703V216.652z"/>
		<path fill="#010101" d="M679.104,238.549c-4.356,0-7.645-0.744-9.867-2.23c-2.644-1.757-3.965-4.663-3.965-8.718
			s1.321-6.961,3.965-8.717c2.177-1.488,5.466-2.231,9.867-2.231c4.354,0,7.65,0.743,9.888,2.231
			c2.644,1.756,3.966,4.662,3.966,8.717s-1.321,6.961-3.966,8.718C686.754,237.804,683.458,238.549,679.104,238.549z
			 M679.104,219.334c-3.484,0-6.046,0.45-7.682,1.351c-2.312,1.232-3.47,3.536-3.47,6.916s1.157,5.684,3.47,6.916
			c1.636,0.901,4.197,1.351,7.682,1.351c3.482,0,6.051-0.45,7.703-1.351c2.299-1.232,3.448-3.536,3.448-6.916
			c0-3.365-1.149-5.67-3.448-6.916C685.154,219.784,682.586,219.334,679.104,219.334z"/>
		<path fill="#010101" d="M725.385,227.6c0-3.38-1.157-5.684-3.469-6.916c-1.652-0.901-4.213-1.351-7.682-1.351
			c-3.498,0-6.067,0.45-7.704,1.351c-2.298,1.246-3.447,3.551-3.447,6.916v10.948h-2.703v-21.896h2.703v3.108
			c2.942-2.072,6.66-3.108,11.15-3.108c4.341,0,7.629,0.743,9.866,2.231c2.644,1.786,3.966,4.693,3.966,8.717v10.948h-2.681V227.6
			L725.385,227.6z"/>
		<path fill="#010101" d="M758.601,237.895c-0.915,0.21-2.162,0.372-3.739,0.484c-1.576,0.112-3.521,0.169-5.834,0.169
			c-6.593,0-10.573-1.148-11.939-3.447l2.637-1.194c0.841,0.842,2.41,1.42,4.707,1.735c1.353,0.18,3.14,0.27,5.362,0.27
			c3.004,0,5.174-0.09,6.51-0.27c3.438-0.466,5.159-1.547,5.159-3.244c0-1.667-1.749-2.74-5.249-3.222
			c-0.646-0.075-1.501-0.13-2.569-0.168c-1.065-0.037-2.372-0.057-3.919-0.057c-3.77,0-6.541-0.247-8.312-0.743
			c-3.304-0.87-4.956-2.673-4.956-5.406c0-2.658,1.668-4.453,5.002-5.384c1.816-0.511,4.768-0.766,8.853-0.766
			c1.592,0,2.966,0.033,4.123,0.101c1.155,0.068,2.125,0.162,2.904,0.282c2.944,0.45,4.941,1.419,5.992,2.904l-2.611,1.239
			c-0.887-0.78-2.464-1.321-4.731-1.622c-1.337-0.18-3.101-0.271-5.294-0.271c-2.958,0-5.114,0.091-6.464,0.271
			c-3.381,0.481-5.069,1.562-5.069,3.244c0,1.681,1.742,2.756,5.227,3.222c0.646,0.075,1.501,0.131,2.568,0.168
			c1.065,0.038,2.373,0.057,3.92,0.057c3.753,0,6.524,0.247,8.312,0.743c3.304,0.87,4.955,2.673,4.955,5.406
			C764.143,235.192,762.295,237.024,758.601,237.895z"/>
	</g>
</g>
</svg>
